<svg xmlns="http://www.w3.org/2000/svg" width="29.22" height="29.213" viewBox="0 0 29.22 29.213">
  <path id="Icon_awesome-instagram" data-name="Icon awesome-instagram" d="M14.608,9.354a7.49,7.49,0,1,0,7.49,7.49A7.478,7.478,0,0,0,14.608,9.354Zm0,12.359a4.869,4.869,0,1,1,4.869-4.869A4.878,4.878,0,0,1,14.608,21.714ZM24.151,9.048A1.747,1.747,0,1,1,22.4,7.3,1.743,1.743,0,0,1,24.151,9.048Zm4.961,1.773A8.645,8.645,0,0,0,26.752,4.7a8.7,8.7,0,0,0-6.121-2.36C18.219,2.2,10.99,2.2,8.578,2.34A8.69,8.69,0,0,0,2.457,4.694,8.674,8.674,0,0,0,.1,10.815c-.137,2.412-.137,9.641,0,12.053a8.645,8.645,0,0,0,2.36,6.121,8.713,8.713,0,0,0,6.121,2.36c2.412.137,9.641.137,12.053,0a8.645,8.645,0,0,0,6.121-2.36,8.7,8.7,0,0,0,2.36-6.121c.137-2.412.137-9.635,0-12.046ZM26,25.455a4.93,4.93,0,0,1-2.777,2.777c-1.923.763-6.486.587-8.611.587S7.913,28.988,6,28.232A4.93,4.93,0,0,1,3.22,25.455c-.763-1.923-.587-6.486-.587-8.611s-.169-6.695.587-8.611A4.93,4.93,0,0,1,6,5.456c1.923-.763,6.486-.587,8.611-.587s6.695-.169,8.611.587A4.93,4.93,0,0,1,26,8.233c.763,1.923.587,6.486.587,8.611S26.759,23.539,26,25.455Z" transform="translate(0.005 -2.238)" fill="#1899b9"/>
</svg>
