<svg xmlns="http://www.w3.org/2000/svg" width="31.197" height="31.197" viewBox="0 0 31.197 31.197">
  <path id="Path_39149" data-name="Path 39149" d="M2081.624,532.5a15.6,15.6,0,1,0,15.6,15.6A15.6,15.6,0,0,0,2081.624,532.5Zm-5.148,24.122c-1.11-.012-2.219-.009-3.329,0-.178,0-.231-.043-.231-.227q.008-5.932,0-11.863c0-.164.04-.222.214-.221,1.125.007,2.251.009,3.377,0,.217,0,.246.082.245.267q-.008,2.954,0,5.908c0,1.953,0,3.906,0,5.859C2076.754,556.559,2076.7,556.624,2076.475,556.622Zm-1.638-14.006a2.215,2.215,0,1,1,2.218-2.226A2.231,2.231,0,0,1,2074.837,542.616Zm16.27,13.751c0,.2-.056.255-.254.253q-1.666-.013-3.331,0c-.2,0-.237-.059-.236-.243q.009-3.076,0-6.151a5.526,5.526,0,0,0-.179-1.527,1.716,1.716,0,0,0-1.888-1.338,2.064,2.064,0,0,0-2.168,2.06,7.726,7.726,0,0,0-.059.962c0,1.994,0,3.988.006,5.982,0,.2-.049.257-.252.256q-1.677-.015-3.354,0c-.179,0-.231-.047-.231-.228q.007-5.922,0-11.844c0-.2.064-.241.249-.239q1.592.012,3.186,0c.2,0,.246.061.241.246-.01.472,0,.944,0,1.416.255-.288.467-.58.73-.828a4.009,4.009,0,0,1,2.883-1.138,6.676,6.676,0,0,1,1.813.221,3.542,3.542,0,0,1,2.516,2.646,11.057,11.057,0,0,1,.335,3.032C2091.111,552.058,2091.1,554.213,2091.106,556.367Z" transform="translate(-2066.025 -532.5)" fill="#1899b9"/>
</svg>
